<svg xmlns:dc="http://purl.org/dc/elements/1.1/" xmlns:cc="http://creativecommons.org/ns#" xmlns:rdf="http://www.w3.org/1999/02/22-rdf-syntax-ns#" xmlns:svg="http://www.w3.org/2000/svg" xmlns="http://www.w3.org/2000/svg" xmlns:sodipodi="http://sodipodi.sourceforge.net/DTD/sodipodi-0.dtd" xmlns:inkscape="http://www.inkscape.org/namespaces/inkscape" id="svg18476" xml:space="preserve" width="800" height="800" viewBox="0 0 800 800" sodipodi:docname="chemical-flasks-publicdomainvectors.org.svg" inkscape:version="0.92.4 (5da689c313, 2019-01-14)"><metadata></metadata><defs id="defs18480"><clipPath clipPathUnits="userSpaceOnUse" id="clipPath18492"><path d="M 0,600 H 600 V 0 H 0 Z" id="path18490" inkscape:connector-curvature="0"></path></clipPath></defs><g id="g18484" inkscape:groupmode="layer" inkscape:label="chemical-flasks-publicdomainvectors.org" transform="matrix(1.3333333,0,0,-1.3333333,0,800)"><g id="g18486"><g id="g18488" clip-path="url(#clipPath18492)"><path d="m 208.232,104.663 c 92.99,0 168.832,19.561 168.832,43.542 0,23.983 -75.842,43.543 -168.832,43.543 -92.989,0 -168.832,-19.56 -168.832,-43.543 0,-23.981 75.843,-43.542 168.832,-43.542" style="fill:#e8e8e7;fill-opacity:1;fill-rule:evenodd;stroke:none" id="path18494" inkscape:connector-curvature="0"></path><path d="m 380.266,140.924 c 92.99,0 168.832,31.555 168.832,70.242 0,38.687 -75.842,70.239 -168.832,70.239 -92.99,0 -168.832,-31.552 -168.832,-70.239 0,-38.687 75.842,-70.242 168.832,-70.242" style="fill:#e8e8e7;fill-opacity:1;fill-rule:evenodd;stroke:none" id="path18496" inkscape:connector-curvature="0"></path><path d="m 418.574,327.557 66.515,-103.134 c 71.671,-111.129 -368.683,-105.538 -300.618,0 l 66.514,103.134 c 17.993,27.898 32.701,53.474 32.701,86.67 v 74.633 h 102.188 v -74.633 c 0,-33.194 14.709,-58.772 32.7,-86.67" style="fill:#b1bfb5;fill-opacity:1;fill-rule:evenodd;stroke:none" id="path18498" inkscape:connector-curvature="0"></path><path d="m 297.816,145.049 c -77.724,7.053 -142.647,33.943 -113.345,79.374 l 66.514,103.134 c 1.443,2.239 2.864,4.459 4.257,6.672 41.793,-22.308 73.136,-62.369 73.136,-111.225 0,-12.088 -1.964,-24.039 -5.794,-35.504 -5.297,-15.853 -13.898,-30.107 -24.768,-42.451" style="fill:#99ada3;fill-opacity:1;fill-rule:evenodd;stroke:none" id="path18500" inkscape:connector-curvature="0"></path><path d="m 370.118,476.96 h -69.901 v -53.772 c 0,-38.065 -11.667,-66.915 -31.699,-97.976 L 202.002,222.076 c -39.364,-61.025 308.742,-66.962 265.555,0 l -66.514,103.136 c -20.032,31.06 -30.925,59.912 -30.925,97.976 z" style="fill:#d0d8d2;fill-opacity:1;fill-rule:evenodd;stroke:none" id="path18502" inkscape:connector-curvature="0"></path><path d="m 367.961,385.611 c 19.399,-66.013 60.659,-115.262 95.055,-171.01 7.191,-11.66 -19.709,-24.519 -35.091,-27.984 6.592,5.763 13.662,11.181 15.99,19.989 4.442,23.912 -69.737,116.652 -75.954,179.005" style="fill:#edf0ee;fill-opacity:1;fill-rule:evenodd;stroke:none" id="path18504" inkscape:connector-curvature="0"></path><path d="m 304.296,476.96 c 0.297,-25.769 0.594,-51.535 0.889,-77.303 -6.197,-66.286 -61.591,-124.239 -94.389,-186.556 2.354,-17.062 62.925,-31.596 114.599,-31.982 -35.939,5.718 -47.632,6.161 -58.015,19.806 21.692,61.593 59.643,154.462 60.902,194.291 0.191,24.406 0.38,48.811 0.57,73.218 -8.185,2.842 -16.372,5.683 -24.556,8.526" style="fill:#edf0ee;fill-opacity:1;fill-rule:evenodd;stroke:none" id="path18506" inkscape:connector-curvature="0"></path><path d="M 267.258,323.258 202.002,222.076 c -39.364,-61.025 308.742,-66.962 265.555,0 l -65.254,101.182 z" style="fill:#6fad2e;fill-opacity:1;fill-rule:evenodd;stroke:none" id="path18508" inkscape:connector-curvature="0"></path><path d="M 267.258,323.258 202.002,222.076 c -18.067,-28.011 45.502,-44.404 115.39,-47.481 1.972,4.174 3.712,8.475 5.192,12.905 3.83,11.465 5.794,23.416 5.794,35.504 0,41.67 -22.8,76.939 -55.433,100.254 z" style="fill:#67a32f;fill-opacity:1;fill-rule:evenodd;stroke:none" id="path18510" inkscape:connector-curvature="0"></path><path d="m 394.159,323.258 h -5.871 c 23.658,-49.924 58.722,-99.992 55.627,-116.652 -2.328,-8.808 -9.398,-14.226 -15.99,-19.989 15.382,3.465 42.282,16.324 35.091,27.984 -22.718,36.821 -48.428,70.807 -68.857,108.657" style="fill:#84c327;fill-opacity:1;fill-rule:evenodd;stroke:none" id="path18512" inkscape:connector-curvature="0"></path><path d="m 311.217,323.258 h -32.516 c -20.439,-36.973 -48.235,-72.781 -67.905,-110.157 2.354,-17.062 62.925,-31.596 114.599,-31.982 -35.939,5.718 -47.632,6.161 -58.015,19.806 12.587,35.738 30.646,82.007 43.837,122.333" style="fill:#84c327;fill-opacity:1;fill-rule:evenodd;stroke:none" id="path18514" inkscape:connector-curvature="0"></path><path d="m 277.017,320.245 c -20.26,-35.911 -47.085,-70.784 -66.221,-107.144 2.277,-16.5 59.006,-30.638 109.477,-31.898 l 0.27,0.682 c -32.17,5.022 -43.261,6.03 -53.163,19.04 9.824,27.892 22.98,62.2 34.557,95.093 -7.202,8.986 -15.614,17.109 -24.92,24.227" style="fill:#78b52b;fill-opacity:1;fill-rule:evenodd;stroke:none" id="path18516" inkscape:connector-curvature="0"></path><path d="m 334.71,465.106 c 40.725,0 73.941,16.792 73.941,37.381 0,20.589 -33.216,37.382 -73.941,37.382 -40.726,0 -73.941,-16.793 -73.941,-37.382 0,-20.589 33.215,-37.381 73.941,-37.381" style="fill:#b1bfb5;fill-opacity:1;fill-rule:evenodd;stroke:none" id="path18518" inkscape:connector-curvature="0"></path><path d="m 334.71,502.488 c 18.724,0 33.995,5.854 33.995,13.032 0,7.179 -15.271,13.034 -33.995,13.034 -18.725,0 -33.995,-5.855 -33.995,-13.034 0,-7.178 15.27,-13.032 33.995,-13.032" style="fill:#8ea89a;fill-opacity:1;fill-rule:evenodd;stroke:none" id="path18520" inkscape:connector-curvature="0"></path><path d="m 357.736,525.106 c 6.744,-2.381 10.968,-5.794 10.968,-9.586 0,-7.198 -15.22,-13.033 -33.994,-13.033 -10.058,0 -19.093,1.676 -25.317,4.337 11.751,8.254 28.589,14.697 48.343,18.282" style="fill:#d0d8d2;fill-opacity:1;fill-rule:evenodd;stroke:none" id="path18522" inkscape:connector-curvature="0"></path><path d="m 273.196,518.401 c -42.711,-42.197 87.132,-75.463 130.219,-23.21 -54.163,-31.084 -150.085,-7.678 -130.219,23.21" style="fill:#d0d8d2;fill-opacity:1;fill-rule:evenodd;stroke:none" id="path18524" inkscape:connector-curvature="0"></path><path d="m 199.359,216.157 c -13.892,-55.416 309.944,-58.809 268.198,5.919 l -1.714,2.658 c -21.789,13.684 -71.105,23.236 -128.463,23.236 -68.725,0 -125.906,-13.708 -138.021,-31.813" style="fill:#629d30;fill-opacity:1;fill-rule:evenodd;stroke:none" id="path18526" inkscape:connector-curvature="0"></path><path d="m 199.359,216.157 c -6.117,-24.399 53.24,-38.709 118.033,-41.562 1.972,4.174 3.712,8.475 5.192,12.905 3.83,11.465 5.794,23.416 5.794,35.504 0,8.562 -0.964,16.854 -2.777,24.827 -63.395,-1.461 -114.827,-14.615 -126.242,-31.674" style="fill:#5c952f;fill-opacity:1;fill-rule:evenodd;stroke:none" id="path18528" inkscape:connector-curvature="0"></path><path d="m 452.393,231.347 c -5.377,2.127 -11.5,4.099 -18.266,5.886 6.825,-13.661 10.936,-24.448 9.788,-30.627 -2.328,-8.808 -9.398,-14.226 -15.99,-19.989 15.382,3.465 42.282,16.324 35.091,27.984 -3.482,5.64 -7.033,11.214 -10.623,16.746" style="fill:#6eab2e;fill-opacity:1;fill-rule:evenodd;stroke:none" id="path18530" inkscape:connector-curvature="0"></path><path d="m 283.406,244.983 c -25.677,-2.972 -47.489,-8 -62.78,-14.342 -3.436,-5.816 -6.735,-11.659 -9.83,-17.54 2.354,-17.062 62.925,-31.596 114.599,-31.982 -35.939,5.718 -47.632,6.161 -58.015,19.806 4.748,13.481 10.275,28.464 16.026,44.058" style="fill:#6eab2e;fill-opacity:1;fill-rule:evenodd;stroke:none" id="path18532" inkscape:connector-curvature="0"></path><path d="m 334.78,307.935 c 37.191,0 67.524,6.884 67.524,15.323 0,8.442 -30.333,15.325 -67.524,15.325 -37.189,0 -67.522,-6.883 -67.522,-15.325 0,-8.439 30.333,-15.323 67.522,-15.323" style="fill:#89c925;fill-opacity:1;fill-rule:evenodd;stroke:none" id="path18534" inkscape:connector-curvature="0"></path><path d="m 286.217,312.613 c -11.737,2.756 -18.959,6.509 -18.959,10.645 0,1.034 0.452,2.041 1.308,3.016 6.231,-4.145 12.144,-8.71 17.651,-13.661" style="fill:#7dbb2a;fill-opacity:1;fill-rule:evenodd;stroke:none" id="path18536" inkscape:connector-curvature="0"></path><path d="m 383.436,333.884 c 2.164,-0.51 4.172,-1.055 6.009,-1.629 2.535,-4.994 5.17,-9.913 7.887,-14.774 -1.434,-0.798 -3.152,-1.562 -5.131,-2.288 -3.091,6.227 -6.044,12.477 -8.765,18.691" style="fill:#a0d73a;fill-opacity:1;fill-rule:evenodd;stroke:none" id="path18538" inkscape:connector-curvature="0"></path><path d="m 306.558,309.335 c -13.701,1.432 -24.928,3.875 -31.823,6.909 3.288,5.685 6.425,11.393 9.352,17.136 8.355,2.155 19.332,3.771 31.798,4.593 -2.809,-9.169 -5.963,-18.787 -9.327,-28.638" style="fill:#a0d73a;fill-opacity:1;fill-rule:evenodd;stroke:none" id="path18540" inkscape:connector-curvature="0"></path><path d="m 286.214,312.613 c -4.56,1.072 -8.441,2.293 -11.479,3.631 0.77,1.332 1.533,2.665 2.285,3.999 3.173,-2.428 6.241,-4.973 9.194,-7.63" style="fill:#94d22c;fill-opacity:1;fill-rule:evenodd;stroke:none" id="path18542" inkscape:connector-curvature="0"></path><path d="m 354.215,212.126 c 6.108,0 11.091,4.981 11.091,11.092 0,6.108 -4.983,11.092 -11.091,11.092 -6.11,0 -11.092,-4.984 -11.092,-11.092 0,-6.111 4.982,-11.092 11.092,-11.092" style="fill:#6eab2e;fill-opacity:1;fill-rule:evenodd;stroke:none" id="path18544" inkscape:connector-curvature="0"></path><path d="m 354.215,234.31 c 2.281,0 4.403,-0.691 6.167,-1.872 0.72,-1.522 1.123,-3.218 1.123,-5.01 0,-6.466 -5.241,-11.707 -11.706,-11.707 -1.594,0 -3.113,0.318 -4.499,0.895 -1.367,1.845 -2.177,4.129 -2.177,6.602 0,6.125 4.965,11.092 11.092,11.092" style="fill:#80be29;fill-opacity:1;fill-rule:evenodd;stroke:none" id="path18546" inkscape:connector-curvature="0"></path><path d="m 348.873,231.74 c 1.248,0 2.259,-1.011 2.259,-2.259 0,-1.247 -1.011,-2.261 -2.259,-2.261 -1.249,0 -2.258,1.014 -2.258,2.261 0,1.248 1.009,2.259 2.258,2.259 m -3.204,-6.362 c 0.788,0 1.426,-0.636 1.426,-1.424 0,-0.787 -0.638,-1.425 -1.426,-1.425 -0.786,0 -1.424,0.638 -1.424,1.425 0,0.788 0.638,1.424 1.424,1.424" style="fill:#9ad536;fill-opacity:1;fill-rule:evenodd;stroke:none" id="path18548" inkscape:connector-curvature="0"></path><path d="m 289.397,204.02 c 4.133,0 7.504,3.371 7.504,7.503 0,4.133 -3.371,7.504 -7.504,7.504 -4.133,0 -7.504,-3.371 -7.504,-7.504 0,-4.132 3.371,-7.503 7.504,-7.503" style="fill:#6eab2e;fill-opacity:1;fill-rule:evenodd;stroke:none" id="path18550" inkscape:connector-curvature="0"></path><path d="m 289.397,219.027 c 1.543,0 2.978,-0.465 4.171,-1.265 0.488,-1.028 0.761,-2.177 0.761,-3.391 0,-4.373 -3.548,-7.92 -7.92,-7.92 -1.08,0 -2.107,0.217 -3.046,0.608 -0.925,1.247 -1.471,2.792 -1.471,4.464 0,4.145 3.359,7.504 7.505,7.504" style="fill:#80be29;fill-opacity:1;fill-rule:evenodd;stroke:none" id="path18552" inkscape:connector-curvature="0"></path><path d="m 285.782,217.291 c 0.845,0 1.53,-0.685 1.53,-1.529 0,-0.845 -0.685,-1.53 -1.53,-1.53 -0.844,0 -1.529,0.685 -1.529,1.53 0,0.844 0.685,1.529 1.529,1.529 m -2.167,-4.306 c 0.533,0 0.963,-0.429 0.963,-0.963 0,-0.532 -0.43,-0.964 -0.963,-0.964 -0.532,0 -0.965,0.432 -0.965,0.964 0,0.534 0.433,0.963 0.965,0.963" style="fill:#9ad536;fill-opacity:1;fill-rule:evenodd;stroke:none" id="path18554" inkscape:connector-curvature="0"></path><path d="m 424.188,218.645 c 2.47,0 4.486,2.015 4.486,4.484 0,2.47 -2.016,4.483 -4.486,4.483 -2.467,0 -4.482,-2.013 -4.482,-4.483 0,-2.469 2.015,-4.484 4.482,-4.484" style="fill:#6eab2e;fill-opacity:1;fill-rule:evenodd;stroke:none" id="path18556" inkscape:connector-curvature="0"></path><path d="m 424.19,227.612 c 0.922,0 1.78,-0.279 2.493,-0.756 0.292,-0.615 0.454,-1.3 0.454,-2.025 0,-2.614 -2.119,-4.732 -4.731,-4.732 -0.646,0 -1.26,0.13 -1.821,0.364 -0.552,0.742 -0.879,1.667 -0.879,2.666 0,2.475 2.008,4.483 4.484,4.483" style="fill:#80be29;fill-opacity:1;fill-rule:evenodd;stroke:none" id="path18558" inkscape:connector-curvature="0"></path><path d="m 422.029,226.574 c 0.506,0 0.914,-0.408 0.914,-0.914 0,-0.504 -0.408,-0.911 -0.914,-0.911 -0.504,0 -0.912,0.407 -0.912,0.911 0,0.506 0.408,0.914 0.912,0.914 m -1.294,-2.572 c 0.319,0 0.578,-0.258 0.578,-0.573 0,-0.32 -0.259,-0.577 -0.578,-0.577 -0.317,0 -0.576,0.257 -0.576,0.577 0,0.315 0.259,0.573 0.576,0.573" style="fill:#9ad536;fill-opacity:1;fill-rule:evenodd;stroke:none" id="path18560" inkscape:connector-curvature="0"></path><path d="m 402.959,191.19 c 1.87,0 3.396,1.525 3.396,3.397 0,1.868 -1.526,3.392 -3.396,3.392 -1.868,0 -3.395,-1.524 -3.395,-3.392 0,-1.872 1.527,-3.397 3.395,-3.397" style="fill:#6eab2e;fill-opacity:1;fill-rule:evenodd;stroke:none" id="path18562" inkscape:connector-curvature="0"></path><path d="m 402.959,197.979 c 0.7,0 1.35,-0.209 1.888,-0.57 0.221,-0.466 0.344,-0.985 0.344,-1.534 0,-1.979 -1.603,-3.585 -3.583,-3.585 -0.487,0 -0.953,0.1 -1.378,0.276 -0.418,0.563 -0.666,1.261 -0.666,2.021 0,1.875 1.522,3.392 3.395,3.392" style="fill:#80be29;fill-opacity:1;fill-rule:evenodd;stroke:none" id="path18564" inkscape:connector-curvature="0"></path><path d="m 401.325,197.195 c 0.382,0 0.692,-0.309 0.692,-0.692 0,-0.383 -0.31,-0.691 -0.692,-0.691 -0.383,0 -0.69,0.308 -0.69,0.691 0,0.383 0.307,0.692 0.69,0.692 m -0.981,-1.947 c 0.241,0 0.437,-0.196 0.437,-0.436 0,-0.242 -0.196,-0.438 -0.437,-0.438 -0.24,0 -0.435,0.196 -0.435,0.438 0,0.24 0.195,0.436 0.435,0.436" style="fill:#9ad536;fill-opacity:1;fill-rule:evenodd;stroke:none" id="path18566" inkscape:connector-curvature="0"></path><path d="m 298.111,232.3 c 1.87,0 3.395,1.524 3.395,3.395 0,1.87 -1.525,3.395 -3.395,3.395 -1.87,0 -3.395,-1.525 -3.395,-3.395 0,-1.871 1.525,-3.395 3.395,-3.395" style="fill:#6eab2e;fill-opacity:1;fill-rule:evenodd;stroke:none" id="path18568" inkscape:connector-curvature="0"></path><path d="m 298.111,239.09 c 0.7,0 1.347,-0.211 1.888,-0.572 0.222,-0.466 0.343,-0.985 0.343,-1.535 0,-1.978 -1.604,-3.583 -3.582,-3.583 -0.489,0 -0.953,0.099 -1.377,0.275 -0.42,0.564 -0.667,1.263 -0.667,2.02 0,1.875 1.52,3.395 3.395,3.395" style="fill:#80be29;fill-opacity:1;fill-rule:evenodd;stroke:none" id="path18570" inkscape:connector-curvature="0"></path><path d="m 296.477,238.304 c 0.382,0 0.69,-0.308 0.69,-0.691 0,-0.383 -0.308,-0.692 -0.69,-0.692 -0.383,0 -0.692,0.309 -0.692,0.692 0,0.383 0.309,0.691 0.692,0.691 m -0.982,-1.948 c 0.242,0 0.436,-0.194 0.436,-0.436 0,-0.239 -0.194,-0.436 -0.436,-0.436 -0.24,0 -0.436,0.197 -0.436,0.436 0,0.242 0.196,0.436 0.436,0.436" style="fill:#9ad536;fill-opacity:1;fill-rule:evenodd;stroke:none" id="path18572" inkscape:connector-curvature="0"></path><path d="m 387.974,231.748 c 1.87,0 3.394,1.526 3.394,3.397 0,1.871 -1.524,3.396 -3.394,3.396 -1.87,0 -3.397,-1.525 -3.397,-3.396 0,-1.871 1.527,-3.397 3.397,-3.397" style="fill:#6eab2e;fill-opacity:1;fill-rule:evenodd;stroke:none" id="path18574" inkscape:connector-curvature="0"></path><path d="m 387.974,238.541 c 0.698,0 1.347,-0.21 1.887,-0.574 0.221,-0.465 0.343,-0.986 0.343,-1.533 0,-1.978 -1.603,-3.583 -3.582,-3.583 -0.488,0 -0.954,0.096 -1.378,0.275 -0.42,0.563 -0.667,1.263 -0.667,2.019 0,1.876 1.522,3.396 3.397,3.396" style="fill:#80be29;fill-opacity:1;fill-rule:evenodd;stroke:none" id="path18576" inkscape:connector-curvature="0"></path><path d="m 386.338,237.754 c 0.383,0 0.692,-0.31 0.692,-0.692 0,-0.38 -0.309,-0.693 -0.692,-0.693 -0.381,0 -0.691,0.313 -0.691,0.693 0,0.382 0.31,0.692 0.691,0.692 m -0.981,-1.945 c 0.241,0 0.437,-0.197 0.437,-0.438 0,-0.24 -0.196,-0.436 -0.437,-0.436 -0.241,0 -0.435,0.196 -0.435,0.436 0,0.241 0.194,0.438 0.435,0.438" style="fill:#9ad536;fill-opacity:1;fill-rule:evenodd;stroke:none" id="path18578" inkscape:connector-curvature="0"></path><path d="m 389.306,265.65 c 6.108,0 11.09,4.981 11.09,11.09 0,6.11 -4.982,11.091 -11.09,11.091 -6.11,0 -11.092,-4.981 -11.092,-11.091 0,-6.109 4.982,-11.09 11.092,-11.09" style="fill:#80be29;fill-opacity:1;fill-rule:evenodd;stroke:none" id="path18580" inkscape:connector-curvature="0"></path><path d="m 389.306,287.831 c 2.283,0 4.403,-0.688 6.167,-1.872 0.719,-1.518 1.123,-3.216 1.123,-5.01 0,-6.465 -5.242,-11.705 -11.706,-11.705 -1.594,0 -3.115,0.32 -4.499,0.897 -1.368,1.843 -2.177,4.127 -2.177,6.599 0,6.125 4.965,11.091 11.092,11.091" style="fill:#8ecd24;fill-opacity:1;fill-rule:evenodd;stroke:none" id="path18582" inkscape:connector-curvature="0"></path><path d="m 383.964,285.264 c 1.248,0 2.259,-1.011 2.259,-2.261 0,-1.247 -1.011,-2.258 -2.259,-2.258 -1.249,0 -2.258,1.011 -2.258,2.258 0,1.25 1.009,2.261 2.258,2.261 m -3.204,-6.362 c 0.788,0 1.428,-0.638 1.428,-1.423 0,-0.788 -0.64,-1.426 -1.428,-1.426 -0.786,0 -1.424,0.638 -1.424,1.426 0,0.785 0.638,1.423 1.424,1.423" style="fill:#a6da45;fill-opacity:1;fill-rule:evenodd;stroke:none" id="path18584" inkscape:connector-curvature="0"></path><path d="m 311.283,286.215 c 2.775,0 5.039,2.264 5.039,5.038 0,2.776 -2.264,5.04 -5.039,5.04 -2.775,0 -5.038,-2.264 -5.038,-5.04 0,-2.774 2.263,-5.038 5.038,-5.038" style="fill:#80be29;fill-opacity:1;fill-rule:evenodd;stroke:none" id="path18586" inkscape:connector-curvature="0"></path><path d="m 311.283,296.292 c 1.037,0 2,-0.313 2.802,-0.849 0.327,-0.691 0.511,-1.462 0.511,-2.277 0,-2.937 -2.383,-5.318 -5.32,-5.318 -0.724,0 -1.415,0.144 -2.045,0.406 -0.622,0.839 -0.988,1.877 -0.988,2.999 0,2.784 2.256,5.039 5.04,5.039" style="fill:#8ecd24;fill-opacity:1;fill-rule:evenodd;stroke:none" id="path18588" inkscape:connector-curvature="0"></path><path d="m 308.856,295.126 c 0.567,0 1.026,-0.459 1.026,-1.026 0,-0.567 -0.459,-1.028 -1.026,-1.028 -0.567,0 -1.026,0.461 -1.026,1.028 0,0.567 0.459,1.026 1.026,1.026 m -1.456,-2.891 c 0.358,0 0.648,-0.29 0.648,-0.647 0,-0.358 -0.29,-0.648 -0.648,-0.648 -0.356,0 -0.647,0.29 -0.647,0.648 0,0.357 0.291,0.647 0.647,0.647" style="fill:#a6da45;fill-opacity:1;fill-rule:evenodd;stroke:none" id="path18590" inkscape:connector-curvature="0"></path><path d="m 302.108,259.305 c 2.778,0 5.04,2.264 5.04,5.041 0,2.775 -2.262,5.04 -5.04,5.04 -2.774,0 -5.038,-2.265 -5.038,-5.04 0,-2.777 2.264,-5.041 5.038,-5.041" style="fill:#80be29;fill-opacity:1;fill-rule:evenodd;stroke:none" id="path18592" inkscape:connector-curvature="0"></path><path d="m 302.108,269.386 c 1.038,0 2.003,-0.314 2.804,-0.852 0.326,-0.69 0.51,-1.46 0.51,-2.275 0,-2.939 -2.382,-5.32 -5.319,-5.32 -0.724,0 -1.416,0.145 -2.044,0.407 -0.622,0.84 -0.989,1.875 -0.989,3 0,2.782 2.254,5.04 5.038,5.04" style="fill:#8ecd24;fill-opacity:1;fill-rule:evenodd;stroke:none" id="path18594" inkscape:connector-curvature="0"></path><path d="m 299.682,268.219 c 0.568,0 1.026,-0.459 1.026,-1.028 0,-0.567 -0.458,-1.026 -1.026,-1.026 -0.568,0 -1.027,0.459 -1.027,1.026 0,0.569 0.459,1.028 1.027,1.028 m -1.454,-2.891 c 0.356,0 0.647,-0.289 0.647,-0.648 0,-0.359 -0.291,-0.647 -0.647,-0.647 -0.358,0 -0.648,0.288 -0.648,0.647 0,0.359 0.29,0.648 0.648,0.648" style="fill:#a6da45;fill-opacity:1;fill-rule:evenodd;stroke:none" id="path18596" inkscape:connector-curvature="0"></path><path d="m 340.241,265.992 c 1.872,0 3.399,1.528 3.399,3.399 0,1.87 -1.527,3.398 -3.399,3.398 -1.87,0 -3.395,-1.528 -3.395,-3.398 0,-1.871 1.525,-3.399 3.395,-3.399" style="fill:#80be29;fill-opacity:1;fill-rule:evenodd;stroke:none" id="path18598" inkscape:connector-curvature="0"></path><path d="m 340.241,272.789 c 0.7,0 1.351,-0.211 1.89,-0.574 0.221,-0.466 0.345,-0.986 0.345,-1.534 0,-1.981 -1.606,-3.587 -3.586,-3.587 -0.489,0 -0.954,0.097 -1.378,0.275 -0.419,0.565 -0.666,1.264 -0.666,2.022 0,1.877 1.52,3.398 3.395,3.398" style="fill:#8ecd24;fill-opacity:1;fill-rule:evenodd;stroke:none" id="path18600" inkscape:connector-curvature="0"></path><path d="m 338.607,272.001 c 0.381,0 0.692,-0.31 0.692,-0.692 0,-0.383 -0.311,-0.692 -0.692,-0.692 -0.382,0 -0.693,0.309 -0.693,0.692 0,0.382 0.311,0.692 0.693,0.692 m -0.982,-1.948 c 0.242,0 0.437,-0.196 0.437,-0.438 0,-0.24 -0.195,-0.435 -0.437,-0.435 -0.241,0 -0.436,0.195 -0.436,0.435 0,0.242 0.195,0.438 0.436,0.438" style="fill:#a6da45;fill-opacity:1;fill-rule:evenodd;stroke:none" id="path18602" inkscape:connector-curvature="0"></path><path d="m 368.219,253.088 c 1.872,0 3.398,1.526 3.398,3.398 0,1.871 -1.526,3.397 -3.398,3.397 -1.871,0 -3.398,-1.526 -3.398,-3.397 0,-1.872 1.527,-3.398 3.398,-3.398" style="fill:#80be29;fill-opacity:1;fill-rule:evenodd;stroke:none" id="path18604" inkscape:connector-curvature="0"></path><path d="m 368.219,259.883 c 0.7,0 1.349,-0.211 1.889,-0.572 0.221,-0.468 0.345,-0.987 0.345,-1.536 0,-1.981 -1.605,-3.586 -3.586,-3.586 -0.488,0 -0.954,0.096 -1.379,0.276 -0.418,0.564 -0.667,1.264 -0.667,2.021 0,1.875 1.522,3.397 3.398,3.397" style="fill:#8ecd24;fill-opacity:1;fill-rule:evenodd;stroke:none" id="path18606" inkscape:connector-curvature="0"></path><path d="m 366.583,259.096 c 0.383,0 0.692,-0.309 0.692,-0.692 0,-0.381 -0.309,-0.691 -0.692,-0.691 -0.383,0 -0.691,0.31 -0.691,0.691 0,0.383 0.308,0.692 0.691,0.692 m -0.98,-1.948 c 0.241,0 0.436,-0.197 0.436,-0.437 0,-0.24 -0.195,-0.436 -0.436,-0.436 -0.243,0 -0.437,0.196 -0.437,0.436 0,0.24 0.194,0.437 0.437,0.437" style="fill:#a6da45;fill-opacity:1;fill-rule:evenodd;stroke:none" id="path18608" inkscape:connector-curvature="0"></path><path d="m 246.029,332.693 c 41.183,-20.609 68.638,-57.564 68.638,-99.728 0,-64.658 -64.554,-117.073 -144.185,-117.073 -79.631,0 -144.185,52.415 -144.185,117.073 0,42.164 27.454,79.119 68.64,99.73 14.683,7.347 23.376,21.416 23.376,37.836 v 55.092 h 104.338 v -55.092 c 0,-16.422 8.692,-30.489 23.378,-37.838" style="fill:#b1bcbd;fill-opacity:1;fill-rule:evenodd;stroke:none" id="path18610" inkscape:connector-curvature="0"></path><path d="m 118.313,390.866 v 34.757 h 104.338 v -34.757 c -11.9,-9.075 -30.836,-14.949 -52.169,-14.949 -21.334,0 -40.272,5.872 -52.169,14.949" style="fill:#9ca9aa;fill-opacity:1;fill-rule:evenodd;stroke:none" id="path18612" inkscape:connector-curvature="0"></path><path d="m 203.755,413.3 h -66.547 v -36.196 c 0,-23.575 -12.734,-44.186 -33.815,-54.735 -31.963,-15.996 -58.2,-45.593 -58.2,-82.83 0,-63.255 69.328,-98.178 125.289,-98.178 55.96,0 125.289,34.923 125.289,98.178 0,37.237 -26.237,66.834 -58.199,82.83 -21.083,10.549 -33.817,31.16 -33.817,54.735 z" style="fill:#ced5d6;fill-opacity:1;fill-rule:evenodd;stroke:none" id="path18614" inkscape:connector-curvature="0"></path><path d="m 203.755,413.3 h -66.547 v -32.154 c 9.743,-3.32 21.119,-5.229 33.274,-5.229 12.155,0 23.532,1.909 33.273,5.229 z" style="fill:#b7c3c5;fill-opacity:1;fill-rule:evenodd;stroke:none" id="path18616" inkscape:connector-curvature="0"></path><path d="m 193.588,327.237 c 113.76,-47.401 107.752,-167.468 -13.553,-175.405 37.823,59.265 44.74,117.789 13.553,175.405" style="fill:#ebf0ef;fill-opacity:1;fill-rule:evenodd;stroke:none" id="path18618" inkscape:connector-curvature="0"></path><path d="M 288.378,264.593 C 302.224,185.313 231.917,147.19 171.82,144.337 c 59.817,25.789 106.348,86.557 116.558,120.256" style="fill:#aab6b8;fill-opacity:1;fill-rule:evenodd;stroke:none" id="path18620" inkscape:connector-curvature="0"></path><path d="M 101.061,164.362 C 35.8,202.387 25.29,270.93 119.136,327.854 96.3,266.307 89.939,211.669 101.061,164.362" style="fill:#ebf0ef;fill-opacity:1;fill-rule:evenodd;stroke:none" id="path18622" inkscape:connector-curvature="0"></path><path d="m 45.281,243.235 c -0.055,-1.224 -0.088,-2.457 -0.088,-3.696 0,-63.255 69.328,-98.178 125.289,-98.178 55.96,0 125.289,34.923 125.289,98.178 0,1.239 -0.031,2.472 -0.088,3.696 z" style="fill:#b91d24;fill-opacity:1;fill-rule:evenodd;stroke:none" id="path18624" inkscape:connector-curvature="0"></path><path d="m 273.769,243.235 h -60.842 c -2.022,-30.255 -13.315,-60.729 -32.892,-91.403 70.616,4.62 102.144,47.238 93.734,91.403" style="fill:#dd2325;fill-opacity:1;fill-rule:evenodd;stroke:none" id="path18626" inkscape:connector-curvature="0"></path><path d="M 290.127,243.235 H 278.98 C 260.284,209.372 220.443,165.3 171.82,144.337 c 54.423,2.586 117.215,34.092 118.307,98.898" style="fill:#9a1a1f;fill-opacity:1;fill-rule:evenodd;stroke:none" id="path18628" inkscape:connector-curvature="0"></path><path d="m 274.786,236.054 c -17.543,-28.565 -48.51,-62.354 -86.249,-83.442 60.959,6.952 89.931,43.747 86.249,83.442" style="fill:#ac1c22;fill-opacity:1;fill-rule:evenodd;stroke:none" id="path18630" inkscape:connector-curvature="0"></path><path d="M 97.653,243.235 H 50.724 c -3.015,-30.631 16.134,-58.943 50.337,-78.873 -5.729,24.367 -6.817,50.676 -3.408,78.873" style="fill:#dd2325;fill-opacity:1;fill-rule:evenodd;stroke:none" id="path18632" inkscape:connector-curvature="0"></path><path d="m 170.526,208.317 c 68.983,0 125.246,15.685 125.246,34.917 0,19.231 -56.263,34.916 -125.246,34.916 -68.982,0 -125.245,-15.685 -125.245,-34.916 0,-19.232 56.263,-34.917 125.245,-34.917" style="fill:#d8262d;fill-opacity:1;fill-rule:evenodd;stroke:none" id="path18634" inkscape:connector-curvature="0"></path><path d="m 211.383,276.248 c 21.405,-2.06 40.179,-5.688 54.552,-10.397 7.042,-13.894 10.017,-28.257 8.952,-41.923 -15.904,-6.67 -39.804,-11.725 -67.886,-14.104 6.362,22.259 7.954,44.403 4.382,66.424" style="fill:#ec3646;fill-opacity:1;fill-rule:evenodd;stroke:none" id="path18636" inkscape:connector-curvature="0"></path><path d="m 285.646,257.004 c 1.538,-0.996 2.907,-2.017 4.111,-3.06 0.644,-7.698 0.45,-14.965 -0.462,-21.819 -5.476,-4.551 -14.222,-8.683 -25.457,-12.178 9.867,13.259 17.331,26.131 21.808,37.057" style="fill:#b91d24;fill-opacity:1;fill-rule:evenodd;stroke:none" id="path18638" inkscape:connector-curvature="0"></path><path d="m 274.887,223.926 c -3.341,-1.401 -7.035,-2.73 -11.049,-3.979 4.073,5.473 7.735,10.88 10.948,16.11 0.378,-4.083 0.413,-8.135 0.101,-12.131" style="fill:#d72125;fill-opacity:1;fill-rule:evenodd;stroke:none" id="path18640" inkscape:connector-curvature="0"></path><path d="m 95.742,215.223 c -21.33,4.434 -37.422,10.718 -45.224,17.999 -0.429,7.236 0.382,14.644 2.537,22.145 9.473,7.125 27.053,13.156 49.616,17.219 -4.372,-19.984 -6.695,-39.113 -6.929,-57.363" style="fill:#ec3646;fill-opacity:1;fill-rule:evenodd;stroke:none" id="path18642" inkscape:connector-curvature="0"></path><path d="m 142.656,405.491 c -0.197,-29.46 4.318,-53.79 -23.52,-77.637 -22.55,-20.578 -15.886,-50.78 -14.59,-47.16 11.329,31.653 60.698,46.675 54.128,125.206 -5.338,-0.136 -10.68,-0.272 -16.018,-0.409" style="fill:#ebf0ef;fill-opacity:1;fill-rule:evenodd;stroke:none" id="path18644" inkscape:connector-curvature="0"></path><path d="m 142.656,405.491 c 0.068,-9.595 0.126,-17.992 0.072,-26.026 4.793,-1.248 10.362,-2.355 15.688,-2.909 1.076,8.718 1.182,18.524 0.258,29.344 -5.338,-0.136 -10.68,-0.272 -16.018,-0.409" style="fill:#d2dcdc;fill-opacity:1;fill-rule:evenodd;stroke:none" id="path18646" inkscape:connector-curvature="0"></path><path d="m 197.839,405.552 c 0.07,-13.683 -4.037,-41.294 10.125,-63.642 16.331,-25.764 32.242,-20.897 57.971,-76.059 -28.003,28.965 -48.697,34.67 -72.347,61.386 -19.15,21.634 -19.101,58.475 -19.045,78.663 4.136,-0.136 19.16,-0.211 23.296,-0.348" style="fill:#ebf0ef;fill-opacity:1;fill-rule:evenodd;stroke:none" id="path18648" inkscape:connector-curvature="0"></path><path d="m 197.839,405.552 c 0.034,-6.381 -0.842,-15.794 -0.351,-26.287 -6.735,-1.758 -14.086,-2.879 -21.813,-3.23 -1.174,11.249 -1.154,21.866 -1.132,29.865 4.136,-0.136 19.16,-0.211 23.296,-0.348" style="fill:#d2dcdc;fill-opacity:1;fill-rule:evenodd;stroke:none" id="path18650" inkscape:connector-curvature="0"></path><path d="m 170.483,388.241 c 40.725,0 73.94,16.792 73.94,37.382 0,20.588 -33.215,37.381 -73.94,37.381 -40.726,0 -73.942,-16.793 -73.942,-37.381 0,-20.59 33.216,-37.382 73.942,-37.382" style="fill:#b1bcbd;fill-opacity:1;fill-rule:evenodd;stroke:none" id="path18652" inkscape:connector-curvature="0"></path><path d="m 170.483,425.623 c 18.724,0 33.994,5.855 33.994,13.032 0,7.178 -15.27,13.033 -33.994,13.033 -18.724,0 -33.995,-5.855 -33.995,-13.033 0,-7.177 15.271,-13.032 33.995,-13.032" style="fill:#9ca9aa;fill-opacity:1;fill-rule:evenodd;stroke:none" id="path18654" inkscape:connector-curvature="0"></path><path d="m 193.508,448.241 c 6.743,-2.381 10.968,-5.794 10.968,-9.586 0,-7.198 -15.22,-13.032 -33.994,-13.032 -10.057,0 -19.093,1.674 -25.316,4.335 11.751,8.255 28.589,14.698 48.342,18.283" style="fill:#ced5d6;fill-opacity:1;fill-rule:evenodd;stroke:none" id="path18656" inkscape:connector-curvature="0"></path><path d="m 108.967,441.536 c -42.71,-42.197 87.133,-75.463 130.22,-23.21 -54.162,-31.085 -150.084,-7.678 -130.22,23.21" style="fill:#ebf0ef;fill-opacity:1;fill-rule:evenodd;stroke:none" id="path18658" inkscape:connector-curvature="0"></path><path d="m 122.588,173.514 c 6.109,0 11.091,4.98 11.091,11.09 0,6.109 -4.982,11.092 -11.091,11.092 -6.109,0 -11.091,-4.983 -11.091,-11.092 0,-6.11 4.982,-11.09 11.091,-11.09" style="fill:#dd2325;fill-opacity:1;fill-rule:evenodd;stroke:none" id="path18660" inkscape:connector-curvature="0"></path><path d="m 122.588,195.696 c 2.283,0 4.404,-0.688 6.167,-1.872 0.721,-1.519 1.123,-3.216 1.123,-5.01 0,-6.464 -5.241,-11.706 -11.706,-11.706 -1.594,0 -3.113,0.322 -4.499,0.897 -1.367,1.845 -2.177,4.128 -2.177,6.599 0,6.126 4.966,11.092 11.092,11.092" style="fill:#ef2b39;fill-opacity:1;fill-rule:evenodd;stroke:none" id="path18662" inkscape:connector-curvature="0"></path><path d="m 117.246,193.129 c 1.25,0 2.259,-1.011 2.259,-2.261 0,-1.247 -1.009,-2.258 -2.259,-2.258 -1.248,0 -2.258,1.011 -2.258,2.258 0,1.25 1.01,2.261 2.258,2.261 m -3.203,-6.362 c 0.788,0 1.426,-0.638 1.426,-1.425 0,-0.786 -0.638,-1.426 -1.426,-1.426 -0.786,0 -1.424,0.64 -1.424,1.426 0,0.787 0.638,1.425 1.424,1.425" style="fill:#f1475c;fill-opacity:1;fill-rule:evenodd;stroke:none" id="path18664" inkscape:connector-curvature="0"></path><path d="m 163.935,190.894 c 3.053,0 5.545,2.49 5.545,5.545 0,3.054 -2.492,5.546 -5.545,5.546 -3.054,0 -5.546,-2.492 -5.546,-5.546 0,-3.055 2.492,-5.545 5.546,-5.545" style="fill:#dd2325;fill-opacity:1;fill-rule:evenodd;stroke:none" id="path18666" inkscape:connector-curvature="0"></path><path d="m 163.933,201.985 c 1.142,0 2.204,-0.344 3.084,-0.936 0.36,-0.759 0.563,-1.609 0.563,-2.505 0,-3.233 -2.622,-5.852 -5.854,-5.852 -0.797,0 -1.556,0.16 -2.248,0.447 -0.684,0.922 -1.091,2.064 -1.091,3.3 0,3.062 2.485,5.546 5.546,5.546" style="fill:#ef2b39;fill-opacity:1;fill-rule:evenodd;stroke:none" id="path18668" inkscape:connector-curvature="0"></path><path d="m 161.264,200.7 c 0.625,0 1.129,-0.506 1.129,-1.131 0,-0.623 -0.504,-1.131 -1.129,-1.131 -0.623,0 -1.129,0.508 -1.129,1.131 0,0.625 0.506,1.131 1.129,1.131 m -1.601,-3.179 c 0.392,0 0.711,-0.32 0.711,-0.713 0,-0.394 -0.319,-0.713 -0.711,-0.713 -0.395,0 -0.714,0.319 -0.714,0.713 0,0.393 0.319,0.713 0.714,0.713" style="fill:#f1475c;fill-opacity:1;fill-rule:evenodd;stroke:none" id="path18670" inkscape:connector-curvature="0"></path><path d="m 169.514,156.752 c 2.137,0 3.878,1.742 3.878,3.878 0,2.135 -1.741,3.876 -3.878,3.876 -2.134,0 -3.875,-1.741 -3.875,-3.876 0,-2.136 1.741,-3.878 3.875,-3.878" style="fill:#dd2325;fill-opacity:1;fill-rule:evenodd;stroke:none" id="path18672" inkscape:connector-curvature="0"></path><path d="m 169.514,164.507 c 0.799,0 1.54,-0.242 2.156,-0.653 0.252,-0.533 0.392,-1.126 0.392,-1.751 0,-2.263 -1.831,-4.093 -4.091,-4.093 -0.558,0 -1.088,0.111 -1.573,0.314 -0.478,0.643 -0.76,1.442 -0.76,2.306 0,2.142 1.736,3.877 3.876,3.877" style="fill:#ef2b39;fill-opacity:1;fill-rule:evenodd;stroke:none" id="path18674" inkscape:connector-curvature="0"></path><path d="m 167.648,163.608 c 0.435,0 0.788,-0.354 0.788,-0.79 0,-0.436 -0.353,-0.789 -0.788,-0.789 -0.437,0 -0.791,0.353 -0.791,0.789 0,0.436 0.354,0.79 0.791,0.79 m -1.119,-2.223 c 0.274,0 0.497,-0.223 0.497,-0.499 0,-0.273 -0.223,-0.497 -0.497,-0.497 -0.276,0 -0.501,0.224 -0.501,0.497 0,0.276 0.225,0.499 0.501,0.499" style="fill:#f1475c;fill-opacity:1;fill-rule:evenodd;stroke:none" id="path18676" inkscape:connector-curvature="0"></path><path d="m 238.527,201.527 c 2.135,0 3.876,1.744 3.876,3.876 0,2.137 -1.741,3.878 -3.876,3.878 -2.135,0 -3.877,-1.741 -3.877,-3.878 0,-2.132 1.742,-3.876 3.877,-3.876" style="fill:#eb2935;fill-opacity:1;fill-rule:evenodd;stroke:none" id="path18678" inkscape:connector-curvature="0"></path><path d="m 238.525,209.281 c 0.801,0 1.542,-0.242 2.156,-0.653 0.252,-0.532 0.392,-1.126 0.392,-1.751 0,-2.261 -1.83,-4.093 -4.09,-4.093 -0.556,0 -1.089,0.112 -1.574,0.314 -0.476,0.644 -0.76,1.441 -0.76,2.305 0,2.144 1.736,3.878 3.876,3.878" style="fill:#ef3444;fill-opacity:1;fill-rule:evenodd;stroke:none" id="path18680" inkscape:connector-curvature="0"></path><path d="m 236.66,208.383 c 0.437,0 0.787,-0.353 0.787,-0.788 0,-0.437 -0.35,-0.791 -0.787,-0.791 -0.437,0 -0.791,0.354 -0.791,0.791 0,0.435 0.354,0.788 0.791,0.788 m -1.12,-2.224 c 0.274,0 0.498,-0.222 0.498,-0.497 0,-0.274 -0.224,-0.497 -0.498,-0.497 -0.274,0 -0.499,0.223 -0.499,0.497 0,0.275 0.225,0.497 0.499,0.497" style="fill:#f2566c;fill-opacity:1;fill-rule:evenodd;stroke:none" id="path18682" inkscape:connector-curvature="0"></path><path d="m 197.82,256.084 c 4.409,0 8.005,3.596 8.005,8.005 0,4.407 -3.596,8.005 -8.005,8.005 -4.409,0 -8.005,-3.598 -8.005,-8.005 0,-4.409 3.596,-8.005 8.005,-8.005" style="fill:#eb2935;fill-opacity:1;fill-rule:evenodd;stroke:none" id="path18684" inkscape:connector-curvature="0"></path><path d="m 197.82,272.092 c 1.647,0 3.178,-0.496 4.451,-1.35 0.518,-1.096 0.81,-2.322 0.81,-3.614 0,-4.665 -3.781,-8.449 -8.448,-8.449 -1.15,0 -2.249,0.231 -3.247,0.645 -0.987,1.333 -1.571,2.979 -1.571,4.765 0,4.42 3.582,8.003 8.005,8.003" style="fill:#ef3444;fill-opacity:1;fill-rule:evenodd;stroke:none" id="path18686" inkscape:connector-curvature="0"></path><path d="m 193.964,270.238 c 0.901,0 1.63,-0.728 1.63,-1.629 0,-0.9 -0.729,-1.63 -1.63,-1.63 -0.901,0 -1.629,0.73 -1.629,1.63 0,0.901 0.728,1.629 1.629,1.629 m -2.312,-4.59 c 0.568,0 1.029,-0.459 1.029,-1.029 0,-0.566 -0.461,-1.026 -1.029,-1.026 -0.567,0 -1.027,0.46 -1.027,1.026 0,0.57 0.46,1.029 1.027,1.029" style="fill:#f2566c;fill-opacity:1;fill-rule:evenodd;stroke:none" id="path18688" inkscape:connector-curvature="0"></path><path d="m 143.446,240.448 c 2.973,0 5.397,2.422 5.397,5.395 0,2.971 -2.424,5.395 -5.397,5.395 -2.971,0 -5.396,-2.424 -5.396,-5.395 0,-2.973 2.425,-5.395 5.396,-5.395" style="fill:#eb2935;fill-opacity:1;fill-rule:evenodd;stroke:none" id="path18690" inkscape:connector-curvature="0"></path><path d="m 143.445,251.236 c 1.112,0 2.141,-0.333 2.999,-0.908 0.351,-0.74 0.549,-1.566 0.549,-2.436 0,-3.147 -2.55,-5.696 -5.696,-5.696 -0.776,0 -1.515,0.155 -2.188,0.437 -0.664,0.896 -1.059,2.006 -1.059,3.21 0,2.979 2.416,5.393 5.395,5.393" style="fill:#ef3444;fill-opacity:1;fill-rule:evenodd;stroke:none" id="path18692" inkscape:connector-curvature="0"></path><path d="m 140.848,249.99 c 0.607,0 1.098,-0.494 1.098,-1.1 0,-0.606 -0.491,-1.101 -1.098,-1.101 -0.609,0 -1.1,0.495 -1.1,1.101 0,0.606 0.491,1.1 1.1,1.1 m -1.558,-3.095 c 0.382,0 0.692,-0.311 0.692,-0.694 0,-0.383 -0.31,-0.691 -0.692,-0.691 -0.384,0 -0.694,0.308 -0.694,0.691 0,0.383 0.31,0.694 0.694,0.694" style="fill:#f2566c;fill-opacity:1;fill-rule:evenodd;stroke:none" id="path18694" inkscape:connector-curvature="0"></path><path d="m 109.514,229.197 c 2.003,0 3.636,1.635 3.636,3.637 0,2.005 -1.633,3.638 -3.636,3.638 -2.004,0 -3.638,-1.633 -3.638,-3.638 0,-2.002 1.634,-3.637 3.638,-3.637" style="fill:#eb2935;fill-opacity:1;fill-rule:evenodd;stroke:none" id="path18696" inkscape:connector-curvature="0"></path><path d="m 109.514,236.472 c 0.747,0 1.444,-0.227 2.021,-0.615 0.236,-0.497 0.369,-1.055 0.369,-1.643 0,-2.119 -1.718,-3.838 -3.839,-3.838 -0.523,0 -1.021,0.103 -1.474,0.293 -0.45,0.606 -0.715,1.353 -0.715,2.165 0,2.01 1.628,3.638 3.638,3.638" style="fill:#ef3444;fill-opacity:1;fill-rule:evenodd;stroke:none" id="path18698" inkscape:connector-curvature="0"></path><path d="m 107.762,235.63 c 0.409,0 0.741,-0.332 0.741,-0.742 0,-0.409 -0.332,-0.74 -0.741,-0.74 -0.41,0 -0.741,0.331 -0.741,0.74 0,0.41 0.331,0.742 0.741,0.742 m -1.051,-2.086 c 0.258,0 0.467,-0.21 0.467,-0.469 0,-0.257 -0.209,-0.466 -0.467,-0.466 -0.258,0 -0.467,0.209 -0.467,0.466 0,0.259 0.209,0.469 0.467,0.469" style="fill:#f2566c;fill-opacity:1;fill-rule:evenodd;stroke:none" id="path18700" inkscape:connector-curvature="0"></path><path d="m 188.57,220.967 c 2.005,0 3.638,1.633 3.638,3.635 0,2.002 -1.633,3.638 -3.638,3.638 -2.003,0 -3.637,-1.636 -3.637,-3.638 0,-2.002 1.634,-3.635 3.637,-3.635" style="fill:#eb2935;fill-opacity:1;fill-rule:evenodd;stroke:none" id="path18702" inkscape:connector-curvature="0"></path><path d="m 188.57,228.24 c 0.748,0 1.443,-0.226 2.024,-0.615 0.236,-0.497 0.368,-1.054 0.368,-1.643 0,-2.12 -1.72,-3.837 -3.841,-3.837 -0.522,0 -1.019,0.103 -1.474,0.293 -0.449,0.604 -0.714,1.354 -0.714,2.164 0,2.009 1.63,3.638 3.637,3.638" style="fill:#ef3444;fill-opacity:1;fill-rule:evenodd;stroke:none" id="path18704" inkscape:connector-curvature="0"></path><path d="m 186.818,227.398 c 0.41,0 0.741,-0.331 0.741,-0.743 0,-0.408 -0.331,-0.739 -0.741,-0.739 -0.408,0 -0.74,0.331 -0.74,0.739 0,0.412 0.332,0.743 0.74,0.743 m -1.049,-2.086 c 0.258,0 0.465,-0.209 0.465,-0.468 0,-0.258 -0.207,-0.469 -0.465,-0.469 -0.259,0 -0.468,0.211 -0.468,0.469 0,0.259 0.209,0.468 0.468,0.468" style="fill:#f2566c;fill-opacity:1;fill-rule:evenodd;stroke:none" id="path18706" inkscape:connector-curvature="0"></path></g></g></g></svg>